<?xml version="1.0" encoding="utf-8"?>
<!-- Generator: Adobe Illustrator 16.0.3, SVG Export Plug-In . SVG Version: 6.00 Build 0)  -->
<!DOCTYPE svg PUBLIC "-//W3C//DTD SVG 1.1//EN" "http://www.w3.org/Graphics/SVG/1.1/DTD/svg11.dtd">
<svg version="1.1" id="Layer_1" xmlns="http://www.w3.org/2000/svg" xmlns:xlink="http://www.w3.org/1999/xlink" x="0px" y="0px"
	 width="13.231px" height="29.071px" viewBox="0 0 13.231 29.071" enable-background="new 0 0 13.231 29.071" xml:space="preserve">
<path fill="#EB5B2A" stroke="#9F2B16" stroke-miterlimit="10" d="M12.731,11.998c0,0-4.378-11.498-6.142-11.498
	S0.5,11.998,0.5,11.998v14.249h0.003C0.502,26.268,0.5,26.288,0.5,26.309c0,1.249,1.013,2.263,2.263,2.263
	c1.25,0,2.263-1.014,2.263-2.263c0-0.021-0.003-0.041-0.003-0.062h3.186c0,0.021-0.003,0.041-0.003,0.062
	c0,1.249,1.013,2.263,2.263,2.263c1.25,0,2.263-1.014,2.263-2.263c0-0.021-0.002-0.041-0.003-0.062h0.003V11.998z M6.616,21.385
	c-1.25,0-2.263-1.013-2.263-2.263c0-1.249,1.013-2.262,2.263-2.262s2.263,1.013,2.263,2.262C8.878,20.372,7.865,21.385,6.616,21.385
	z"/>
</svg>
